<!DOCTYPE svg PUBLIC "-//W3C//DTD SVG 1.1//EN" "http://www.w3.org/Graphics/SVG/1.1/DTD/svg11.dtd">

<!-- Uploaded to: SVG Repo, www.svgrepo.com, Transformed by: SVG Repo Mixer Tools -->
<svg fill="#000000" width="30px" height="30px" viewBox="0 0 16 16" xmlns="http://www.w3.org/2000/svg">

<g id="SVGRepo_bgCarrier" stroke-width="0"/>

<g id="SVGRepo_tracerCarrier" stroke-linecap="round" stroke-linejoin="round"/>

<g id="SVGRepo_iconCarrier">

<path d="M10 8.52h2a.36.36 0 0 1 .25.11.35.35 0 0 1 .1.25.19.19 0 0 1 0 .08.32.32 0 0 1-.12.2.35.35 0 0 1-.22.08H10a.35.35 0 0 1-.22-.08.34.34 0 0 1-.12-.16l-.05-.23h-1.2v.33a1.6 1.6 0 0 0 .52 1 1.57 1.57 0 0 0 1 .41h.43v.94h1.13v-.94h.36a1.6 1.6 0 0 0 1.56-1.41 1.09 1.09 0 0 0 0-.18 1.56 1.56 0 0 0-.15-.67 1.64 1.64 0 0 0-.43-.55 1.56 1.56 0 0 0-1-.36H10a.37.37 0 0 1-.25-.1.36.36 0 0 1-.11-.26.09.09 0 0 1 0-.05.3.3 0 0 1 .12-.22.33.33 0 0 1 .24-.13h1.92a.35.35 0 0 1 .23.09.4.4 0 0 1 .12.22v.25h1.2v-.33a1.63 1.63 0 0 0-.5-1 1.6 1.6 0 0 0-1.07-.42h-.31v-1h-1.15v1H10a1.57 1.57 0 0 0-1.07.42 1.58 1.58 0 0 0-.5 1v.12a1.58 1.58 0 0 0 .47 1.12 1.53 1.53 0 0 0 1.1.47zm-6.27.29h.84a1.63 1.63 0 0 1 1.59 1.62h1.25a2.86 2.86 0 0 0-.79-2 1.69 1.69 0 0 0 .68-1.34 1.71 1.71 0 0 0-1.71-1.71H2.48v5.05h1.25zm1.86-2.18a.47.47 0 0 1 0 .93H3.73v-.93z"/>

<path d="M14.75 2.5H1.25A1.2 1.2 0 0 0 0 3.64v8.72a1.2 1.2 0 0 0 1.25 1.14h13.5A1.2 1.2 0 0 0 16 12.36V3.64a1.2 1.2 0 0 0-1.25-1.14zm0 9.75H1.25v-8.5h13.5z"/>

</g>

</svg>